<svg xmlns="http://www.w3.org/2000/svg" xmlns:xlink="http://www.w3.org/1999/xlink" viewBox="0 0 1080 1441" xmlns:v="https://vecta.io/nano"><style>.B{isolation:isolate}.g,.w,.z,.F{mix-blend-mode:multiply}.AF{mix-blend-mode:screen}</style><defs><clipPath id="A"><path d="M1 0h1079v1441H1z" fill="none"/></clipPath><linearGradient id="B" x1="120.53" y1="843.7" x2="285.08" y2="843.7" gradientUnits="userSpaceOnUse"><stop offset="0" stop-color="#bb7ad5"/><stop offset="1" stop-color="#fbfbfb"/></linearGradient><linearGradient id="C" x1="100.5" y1="833.34" x2="284.4" y2="833.34" xlink:href="#B"/><linearGradient id="D" x1="1.26" y1="760.33" x2="237.62" y2="760.33" xlink:href="#B"/><linearGradient id="E" x1="143.35" y1="854.25" x2="283.37" y2="854.25" xlink:href="#B"/><linearGradient id="F" x1="82.47" y1="822.97" x2="281.68" y2="822.97" xlink:href="#B"/><linearGradient id="G" x1="212.26" y1="875.36" x2="256.67" y2="875.36" xlink:href="#B"/><linearGradient id="H" x1="66.02" y1="812.56" x2="277.32" y2="812.56" xlink:href="#B"/><linearGradient id="I" x1="12.18" y1="770.79" x2="247.61" y2="770.79" xlink:href="#B"/><linearGradient id="J" x1="24.06" y1="781.24" x2="256.63" y2="781.24" xlink:href="#B"/><linearGradient id="K" x1="36.95" y1="791.69" x2="264.65" y2="791.69" xlink:href="#B"/><linearGradient id="L" x1="50.9" y1="802.13" x2="271.59" y2="802.13" xlink:href="#B"/><linearGradient id="M" x1="170.89" y1="864.8" x2="276.94" y2="864.8" xlink:href="#B"/><linearGradient id="N" x1="-32.72" y1="718.52" x2="187.98" y2="718.52" xlink:href="#B"/><linearGradient id="O" x1="-25.78" y1="728.96" x2="201.92" y2="728.96" xlink:href="#B"/><linearGradient id="P" x1="-17.76" y1="739.41" x2="214.81" y2="739.41" xlink:href="#B"/><linearGradient id="Q" x1="-8.74" y1="749.87" x2="226.69" y2="749.87" xlink:href="#B"/><linearGradient id="R" x1="-44.5" y1="666.4" x2="95.53" y2="666.4" xlink:href="#B"/><linearGradient id="S" x1="-17.79" y1="645.3" x2="26.61" y2="645.3" xlink:href="#B"/><linearGradient id="T" x1="-38.45" y1="708.09" x2="172.85" y2="708.09" xlink:href="#B"/><linearGradient id="U" x1="-46.21" y1="676.96" x2="118.34" y2="676.96" xlink:href="#B"/><linearGradient id="V" x1="-38.06" y1="655.85" x2="67.98" y2="655.85" xlink:href="#B"/><linearGradient id="W" x1="-42.81" y1="697.69" x2="156.4" y2="697.69" xlink:href="#B"/><linearGradient id="X" x1="-45.53" y1="687.31" x2="138.38" y2="687.31" xlink:href="#B"/><linearGradient id="Y" x1="576.76" y1="878.78" x2="576.76" y2="389.57" gradientUnits="userSpaceOnUse"><stop offset="0" stop-color="#cac7c2"/><stop offset=".22" stop-color="#dedcd9"/><stop offset=".47" stop-color="#eeedec"/><stop offset=".73" stop-color="#f8f8f7"/><stop offset="1" stop-color="#fbfbfb"/></linearGradient><linearGradient id="Z" x1="182.18" y1="724.66" x2="247.88" y2="724.66" gradientUnits="userSpaceOnUse"><stop offset="0"/><stop offset=".49" stop-color="#c4171c"/><stop offset="1"/></linearGradient><linearGradient id="a" x1="334.56" y1="559.36" x2="412.95" y2="559.36" xlink:href="#Z"/><path id="b" d="M830.44 356.85a3.74 3.74 0 1 1-3.74-3.74 3.75 3.75 0 0 1 3.74 3.74z"/></defs><g class="B"><g><g clip-path="url(#A)"><path d="M1069.66 1064.5a52.27 52.27 0 1 1-52.27-52.27 52.27 52.27 0 0 1 52.27 52.27z" fill="#cfe5ff"/><path d="M1185.3 385.3C1063.66 279.4 885.48 208 711.36 208 366 208 203.22 356.55 288.62 485.42c181.65 274.13-248.8 109-343.48 270.82-88.83 151.84 77.54 361 289 441.2H559.7c41.54-19.53 80.58-48.25 115.33-87.8 205.2-233.52 386.77-200.72 510.26-225.9z" fill="#eaf4ff"/><g class="F" opacity=".23"><path d="M285 765.73l.08-4.3L120.53 926l4.3-.08z" fill="url(#B)"/><path d="M284.4 745.2l-.4-3.82-183.5 183.5 3.82.4z" fill="url(#C)"/><path d="M1.26 876.4l1 1.07 1.07 1 234.3-234.2-1-1.07c-.3-.35-.72-.7-1.07-1z" fill="url(#D)"/><path d="M282.55 789.28l.82-5-140 140 5-.82z" fill="url(#E)"/><path d="M281.68 726.83l-.75-3.47L82.47 921.82l3.47.75z" fill="url(#F)"/><path d="M256.67 853.15l-44.4 44.4a166.34 166.34 0 0 0 44.41-44.41z" fill="url(#G)"/><path d="M277.32 710.08l-1-3.17L66 917.17l3.17 1z" fill="url(#H)"/><path d="M12.18 886.58l2.3 1.92L247.6 655.37l-1.92-2.3z" fill="url(#I)"/><path d="M256.63 667.45l-1.72-2.5L24.06 895.8l2.5 1.72z" fill="url(#J)"/><path d="M264.65 680.54l-1.52-2.7L37 904l2.7 1.52z" fill="url(#K)"/><path d="M271.6 694.7l-1.3-2.92-219.4 219.4 2.92 1.3z" fill="url(#L)"/><path d="M274.67 818.27l2.27-6.5-106 106.05 6.5-2.27z" fill="url(#M)"/><path d="M188 609.47l-2.93-1.3-217.8 217.77 1.3 2.93z" fill="url(#N)"/><path d="M201.92 616.63l-2.7-1.52-225 225 1.52 2.7z" fill="url(#O)"/><path d="M214.8 624.85l-2.5-1.72L-17.76 853.2l1.72 2.5z" fill="url(#P)"/><path d="M226.7 634.07l-2.3-1.92L-8.74 865.3l1.92 2.3z" fill="url(#Q)"/><path d="M95.53 596.4l-5 .82-134.2 134.16-.82 5z" fill="url(#R)"/><path d="M26.6 623.1a166.65 166.65 0 0 0-44.4 44.4z" fill="url(#S)"/><path d="M172.85 603.5l-3.17-1-208.13 208.08 1.05 3.17z" fill="url(#T)"/><path d="M118.34 594.68l-4.3.08-160.17 160.17-.08 4.3z" fill="url(#U)"/><path d="M-35.8 702.4q-1.2 3.23-2.26 6.48l106-106q-3.26 1.06-6.48 2.26z" fill="url(#V)"/><path d="M156.4 598.83l-3.47-.75L-42.8 793.82l.75 3.47z" fill="url(#W)"/><path d="M138.38 595.75l-3.83-.4-180.08 180.08.4 3.83z" fill="url(#X)"/></g><g fill="#cfe5ff"><circle cx="102.02" cy="592.76" r="37.98"/><circle cx="105.41" cy="1220.07" r="42.93"/></g><path d="M283.6 668c-6.8-1.8-17.44-18.9-26.23-19.68s-19.38 9.53-28.38 3-9.8-34.56-20.08-40.15-18 .67-21.88-5.93 1.17-29.07-8-37-16.78-5.25-18.6-12.25 3.67-17.9-3.76-28.3-10.24-23.66.85-17.47 21 14 32.16 11.52 9.13 16.6 17.06 21.13 19.73-3.13 26.15.9 6.94 25.62 12.32 27.66 26.84-12.92 36.9-8.73-2.25 31.4 8.5 35.48l23.85 9.23z" fill="#b8e3c2"/><path d="M173.86 535.84s12.1 40 120.6 109.45l6.9-11.2s-87.65-38.1-127.5-98.25z" fill="#9ecdbb"/><path d="M165.85 741.7c-24.2 16.14-37.94 96.06 8.88 97.68 32.3 1.1 45-28 32.87-37-30.44-22.72-66 57.2-30.44 73.35 16.75 7.6 33.76-4.53 52.08-19.32 28-22.63 59.18-51.45 97.26-25.1" fill="none" stroke="#d8171c" stroke-width="2" stroke-miterlimit="10"/><g fill="#e5ebf4"><path class="g" d="M752.82 990.48c0 6.34-21.1 11.5-47.15 11.5s-47.15-5.15-47.15-11.5S679.63 979 705.67 979s47.15 5.14 47.15 11.48zM484 1035.7c0 6.34-21.1 11.48-47.15 11.48s-47.16-5.14-47.16-11.48 21.12-11.48 47.16-11.48 47.15 5.14 47.15 11.48zm362.33-70.05H310.08a189.56 189.56 0 0 1-55.27-8.24L171.43 932h821.8l-96.1 26.75a189.5 189.5 0 0 1-50.78 6.9z"/></g><path d="M952.94 480.07c-10.68-.93-26.13-.58-48 3.17a42.33 42.33 0 0 0-29 19.83c-11.26 18.6-28.66 48.1-32.33 58.4 0 0-31-4.82-48.42-15.44l-7.7 15.44s17.8 12.33 70.17 29.47c0 0 15.58-23.45 23.85-46.3 0 0-1.74 12.67 4.2 35.1 4.7 17.73-6.33 86.92-6.33 86.92l113.93-4.08-9.3-68.8L997.8 576a22.89 22.89 0 0 0 4.49-17.74c-2.12-13.1-7.34-36.73-19.33-58.66a37.93 37.93 0 0 0-30.02-19.53z" fill="#d85c1c"/><path d="M973.1 564.28l-4.2-29.12s-5.62 38.24-8.07 42.8z" fill="#b14800"/><path d="M930.27 601.65c-5.8 2-20.74 6.78-19.37 9.8.8 1.75 11.34-2.4 12.5-1 .88 1.08-2.87 6.67-9.6 10.22-5.23 2.75-8.87 2.18-9.08 4.68-.28 3.16 15.18 2.84 19.13 2.35a22.08 22.08 0 0 0 10.45-4.41c4.07-3.37 5-5.32 7.07-7.3a60 60 0 0 1 9.64-7.37l-7.7-12.5s-9.7 4.34-13.03 5.5z" fill="#e7d1ad"/><path d="M914.48 460.56l2.42 27.74s15 12.83 28.1-1.66l-7.27-33.53z" fill="#e0bd82"/><path d="M955.22 386.34c7.08 6.9 12.7 17.24 12.7 31.76 0 21.43-25.32 51.66-48.5 51.66-20.45 0-37-21-37-46.93 0-19.87 9.85-36.64 23.48-43.7 19.27-9.98 40-1.92 49.33 7.2z" fill="#e7cb9e"/><path d="M906.56 431.77c-.48 1-.93 2.07-1.3 3.13a15.53 15.53 0 0 0-.84 3.23 3.52 3.52 0 0 0 3.44 4.52 4 4 0 0 1-3.19-1.18 4.36 4.36 0 0 1-.75-3.4 12.15 12.15 0 0 1 1-3.31 16.81 16.81 0 0 1 1.65-2.99z" fill="#e0b695"/><g fill="#e0ab82"><path d="M895.9 436.4c0 2.07-2.32 3.74-5.18 3.74s-5.18-1.67-5.18-3.74 2.32-3.74 5.18-3.74 5.18 1.67 5.18 3.74zm39.38.17c0 2.3-2.82 4.16-6.3 4.16s-6.3-1.86-6.3-4.16 2.82-4.15 6.3-4.15 6.3 1.86 6.3 4.15z"/></g><ellipse class="g" cx="921.88" cy="943.9" rx="92.8" ry="16.14" fill="#e5ebf4"/><path d="M988.7 913.47s5.35 1.1 4.57 9.18-.48 19-.48 19l-2.27.88s-1.27-9.7-1.95-9.8-5.2 9.76-10.52 12-18.8 6.57-22.6 2.65c-4.2-4.3 5.17-8.2 10-11s23.26-22.9 23.26-22.9z" fill="#393939"/><path d="M969.55 887.53s5.6 22.16 2.9 31.7-10 17.65-10.8 19.55 10 .65 13.86-2.67 14-20.56 13.37-22.88-2.24-17.68-1.64-29.26z" fill="#e7cb9e"/><path d="M899.86 915.84s5.15 1.8 3.3 9.7a189.45 189.45 0 0 0-3 18.72l-2.36.56s0-9.78-.63-10-6.18 9.17-11.8 10.7-19.74 3.85-23-.55c-3.57-4.8 6.22-7.43 11.35-9.6s26.14-19.55 26.14-19.55z" fill="#393939"/><path d="M884.35 887.57s2.6 22.7-1.37 31.8-12.3 16.15-13.32 17.93 9.86 2 14.1-.8 16.63-18.5 16.3-20.9.14-17.82 2.28-29.2z" fill="#e7cb9e"/><path d="M879.4 666.64l-11 128.73c-1.18 28.44 12.1 116.56 12.1 116.56l23-2s2.72-84.47 9.24-112.62l19.86-85.77 10.2 81.43c3.62 28.92 22.92 118.5 22.92 118.5l27.12-1.18s-7.23-90.38-6.86-120.5c.43-31.8 7.3-127.2 7.3-127.2z" fill="#2638a3"/><path d="M879.4 666.64l-11 128.73c-1.18 28.44 12.1 116.56 12.1 116.56l23-2s2.72-84.47 9.24-112.62l19.86-85.77s-13.22-16.07-17.35-46.2z" fill="#12259a"/><g fill="#424242"><path d="M971.14 420.5s-5.1 15.7-29.84 1.5a185 185 0 0 1-40.46-31.42s-8.07 20.78-20.78 29.12c0 0 .7-14.37 3.1-22 2.65-8.38 10.17-25.77 36.25-26.8 59.45-2.44 51.73 49.6 51.73 49.6z"/><path d="M967.16 409.17s13.7-7.54 8.4-23-25.86-23.88-36.47-10.06M916.6 422c0 1.86 1 3.36 2.15 3.36s2.15-1.5 2.15-3.36-1-3.35-2.15-3.35-2.15 1.45-2.15 3.35zm-22.42 1.2c0 1.86 1 3.36 2.26 3.36s2.25-1.5 2.25-3.36-1-3.35-2.25-3.35-2.26 1.5-2.26 3.35z"/></g><path d="M918.84 447.5s-10.6 5-19.07.78c-.18 4.47 10.75 13.2 19.07-.78z" fill="#e5f1ff"/><path d="M950.67 433.6c-2.82 8.68.33 17.3 7 19.26s14.43-3.5 17.25-12.17-.33-17.3-7-19.26-14.43 3.5-17.25 12.17z"/><path d="M959.07 447.1s-12.76 19-39.3 13.14" fill="none" stroke-miterlimit="10" stroke="#000" stroke-linecap="round"/><path d="M920 459.47a.77.77 0 0 0-.88.61.76.76 0 0 0 .61.87.74.74 0 0 0 .87-.6.75.75 0 0 0-.6-.88z"/><path d="M968.7 431.38s7.14-65.33-44.64-65.73c-11.8-.1-33.1 4.32-39.17 25" fill="none" stroke-miterlimit="10" stroke="#000" stroke-linecap="round"/><path d="M869 550.48h0l-250.52-138.6a86.19 86.19 0 0 0-83.44 0l-250.6 138.6A35.5 35.5 0 0 0 266 581.7v348.75A35.52 35.52 0 0 0 301.48 966h550.57a35.52 35.52 0 0 0 35.52-35.52V581.7A35.51 35.51 0 0 0 869 550.48z" fill="#d49500"/><path d="M618 398.45c2.85-6.42 21.4-14.27 23.54-22.82s-6.42-20.7 1.42-28.54 35.67-4.28 42.8-13.55 2.14-17.83 9.27-20.7 28.54 5.7 37.8-2.14 7.85-15.7 15-16.4 17.12 6.42 28.53.7 25-6.42 17.12 3.57-17.12 18.54-16.4 30-17.84 6.4-23.54 13.5 0 20-5 25.68-26.4 2.85-29.24 7.85 8.56 28.53 2.85 37.8-30.67-7.13-36.38 2.85l-12.84 22.12z" fill="#b8e3c2"/><path d="M765.66 310.7s-41.37 5.7-127 102l10 8.56s51.34-80.6 117-110.56z" fill="#9ecdbb"/><path d="M349.33 389.57H804.2a12.33 12.33 0 0 1 12.33 12.33v476.88a0 0 0 0 1 0 0H337a0 0 0 0 1 0 0V401.9a12.33 12.33 0 0 1 12.33-12.33z" fill="url(#Y)"/><g class="w" fill="#e1e3e6"><path d="M397.83 461.83H755.7v2.8H397.83zm0 39.55H755.7v2.8H397.83zm0 39.55H755.7v2.8H397.83zm0 39.55H755.7v2.8H397.83zm0 39.55H755.7v2.8H397.83zm0 39.55H755.7v2.8H397.83zm0 39.55H755.7v2.8H397.83zm0 39.55H755.7v2.8H397.83z"/></g><path d="M835.4 619.34L573.75 881a1.44 1.44 0 0 1-2 0l-261.7-261.66A62.39 62.39 0 0 0 266 601.08h0v329.37A35.52 35.52 0 0 0 301.48 966h550.57a35.52 35.52 0 0 0 35.52-35.52v-329.4h-8.06a62.39 62.39 0 0 0-44.1 18.26z" fill="#ffb700"/><path class="z" d="M665.24 789.5l-91.5 91.5a1.44 1.44 0 0 1-2 0l-90.08-90.07-215.7 127v12.52A35.52 35.52 0 0 0 301.48 966h550.57a35.52 35.52 0 0 0 35.52-35.52v-11.22z" fill="#e7e7e6"/><path d="M887.57 930.45V919.9l-269.1-148.83a86.19 86.19 0 0 0-83.44 0L266 919.9v10.55A35.52 35.52 0 0 0 301.48 966h550.57a35.52 35.52 0 0 0 35.52-35.55z" fill="#ffc400"/><g fill="#fefefe"><path d="M750.9 923.9c0 6.6 1.05-4.2 21.4-4.2 15.45 0 1.4 40.35-23.16 41.75 0 0-5.26 1.75-4.2 8.42S789.5 961.1 789.5 925c0-24.26-38.6-19.35-38.6-1.1z"/><path d="M646.85 899.94s2.85 93.9 62 93.9c53.47 0 59.53-93.9 59.53-93.9z"/></g><g fill="#eaf4ff"><path d="M665 910.44a61.74 61.74 0 0 1-13.07-2.7c2.33 22.77 12.8 86.38 56.88 86.1a43.66 43.66 0 0 0 8.24-.84c-39.25-7.1-49.45-59.74-52.05-82.55zm103.35-10.5c0 5.35-27.2 9.68-60.75 9.68s-60.75-4.33-60.75-9.68 27.2-9.67 60.75-9.67 60.75 4.33 60.75 9.67z"/></g><ellipse cx="707.6" cy="899.94" rx="54.23" ry="7.6" fill="#fefefe"/><path d="M665.57 904.74c9.94 1.7 25.07 2.8 42 2.8s32.08-1.1 42-2.8c-10-1.7-25.07-2.8-42-2.8s-32.06 1.06-42 2.8z" fill="#606060"/><path d="M335.73 495.68c-55.65 4.37-109.73 59.8-120.23 71.1-10.8 11-63.54 67.73-65.22 123.52-1 32.58 21.5 64.32 35.17 74.9l62.9-79s-10.14-10.1-32.34-16.3c0 0 5.5-28.35 39.5-64.06 32.1-33.68 63-43.52 63-43.52 7.27 21.88 17.86 31.53 17.86 31.53l75.87-66.63c-11.24-13.2-44-34.07-76.5-31.52z" fill="#d8171c"/><g fill="#a60006"><path d="M247.58 685.57l-11.23-8.42c-7.4-5.77-27.3 7.38-44.46 29.36s-25.06 44.5-17.67 50.26l11.23 8.42z"/><path d="M229.9 735.83c-17.15 22-37.06 35.13-44.45 29.36s.52-28.27 17.67-50.26 37.06-35.13 44.46-29.36-.52 28.28-17.68 50.26z"/></g><g class="AF"><path d="M185.45 765.2a6.42 6.42 0 0 1-2.1-2.8 12 12 0 0 1-.76-3.45 25.63 25.63 0 0 1 .57-7 65 65 0 0 1 4.66-13.34 134.12 134.12 0 0 1 34.5-44.22 64.93 64.93 0 0 1 11.8-7.75 25.61 25.61 0 0 1 6.7-2.27 11.61 11.61 0 0 1 3.53-.1 6.46 6.46 0 0 1 3.23 1.35 6.41 6.41 0 0 0-3.25-1.2 11.89 11.89 0 0 0-3.47.21 24.84 24.84 0 0 0-6.52 2.45 64.23 64.23 0 0 0-11.53 7.91 144.32 144.32 0 0 0-34.3 43.95 64.43 64.43 0 0 0-4.87 13.07 25.28 25.28 0 0 0-.79 6.92 12.09 12.09 0 0 0 .64 3.42 6.4 6.4 0 0 0 1.96 2.85z" fill="url(#Z)"/></g><g fill="#a60006"><path d="M412.57 527.28l-9.46-10.36c-6.2-7-28.2 2.15-49.15 20.56s-32.92 39-26.73 46.08l9.47 10.37z"/><path d="M385.84 573.37c-20.95 18.4-42.95 27.6-49.14 20.56s5.77-27.68 26.73-46.1 42.95-27.6 49.14-20.56-5.77 27.72-26.73 46.1z"/></g><g class="AF"><path d="M336.7 593.93a6.5 6.5 0 0 1-1.54-3.14 11.68 11.68 0 0 1-.11-3.54 25.25 25.25 0 0 1 1.88-6.81 64.64 64.64 0 0 1 7.07-12.23 134.13 134.13 0 0 1 42.15-37 64.68 64.68 0 0 1 13-5.42 25.38 25.38 0 0 1 7-1 11.86 11.86 0 0 1 3.5.56 6.49 6.49 0 0 1 2.91 1.93 6.47 6.47 0 0 0-3-1.79 12.19 12.19 0 0 0-3.45-.44 25.45 25.45 0 0 0-6.86 1.19 65.47 65.47 0 0 0-12.81 5.62 144.38 144.38 0 0 0-41.89 36.8 64.46 64.46 0 0 0-7.22 12 24.92 24.92 0 0 0-2.07 6.65 11.94 11.94 0 0 0 0 3.48 6.37 6.37 0 0 0 1.44 3.14z" fill="url(#a)"/></g><path d="M158.33 662.05s37.42-103.85 142.2-153c0 .03-83.74 38.4-142.2 153z" fill="#ffa1a1"/><path d="M317.84 559.05s-29.84 3.5-73.44 43.12c-30.87 28.07-45.4 67.36-45.4 67.36 3.9-1 8.7-.8 12.2-.4 33.16-84.73 106.8-109 106.6-110.07z" fill="#a60006"/><path d="M270.42 420.35a40.83 40.83 0 0 0 1.52 5.89 9.4 9.4 0 0 0 1.77 3.21 3 3 0 0 0 2.08 1 4.92 4.92 0 0 0 2.42-.66 6.74 6.74 0 0 0 3.17-4.12 19.2 19.2 0 0 0 .7-7 39.79 39.79 0 0 0-1.73-8.88 55.59 55.59 0 0 0-4.12-9.83 35.86 35.86 0 0 0-7.06-9.54 23.11 23.11 0 0 0-8.58-5.2 21.76 21.76 0 0 0-9.82-.81 32.42 32.42 0 0 0-10.7 3.64 33.75 33.75 0 0 0-12 10.44A37.27 37.27 0 0 0 222 413a47.92 47.92 0 0 0-.1 16.91 57.37 57.37 0 0 0 6.09 17.66 45.6 45.6 0 0 0 9 12.16 29.56 29.56 0 0 0 10.74 6.57 26.72 26.72 0 0 0 11.93 1.17 36.46 36.46 0 0 0 12.65-4.15 65.47 65.47 0 0 0 7.34-4.48 60.65 60.65 0 0 0 5.54-4.39 37.93 37.93 0 0 0 3.86-4 22.9 22.9 0 0 0 2.27-3.2 9.51 9.51 0 0 1 2.24-2.36 4.43 4.43 0 0 1 2.06-.79 3.22 3.22 0 0 1 1.83.37 7.25 7.25 0 0 1 1.57 1.1l3.7 3.94a57.36 57.36 0 0 1-4.33 6.73 60.73 60.73 0 0 1-5.68 6.59 63.47 63.47 0 0 1-7.21 6.18 69.93 69.93 0 0 1-8.83 5.52 48.84 48.84 0 0 1-17.73 5.69 39.25 39.25 0 0 1-16.65-1.69 41.3 41.3 0 0 1-14.64-8.66A54.37 54.37 0 0 1 216 454.68a61.79 61.79 0 0 1-5.54-14.57 63.19 63.19 0 0 1-1.8-15 60.54 60.54 0 0 1 1.81-14.65 56.06 56.06 0 0 1 5.22-13.46 51.74 51.74 0 0 1 8.53-11.44 47.39 47.39 0 0 1 11.67-8.67 39.81 39.81 0 0 1 14.52-4.53 36.35 36.35 0 0 1 14.49 1.31 37 37 0 0 1 13.1 7.13 42 42 0 0 1 10.22 12.89 48.33 48.33 0 0 1 5 14.43 40.75 40.75 0 0 1 .15 13.87 31.23 31.23 0 0 1-4.53 11.79 23.78 23.78 0 0 1-9 8.21 15.23 15.23 0 0 1-3.32 1.29 10.12 10.12 0 0 1-3.46.27 10.3 10.3 0 0 1-3.39-1 10.77 10.77 0 0 1-3.16-2.4 25.54 25.54 0 0 1-4.4 9.14 21.49 21.49 0 0 1-6.73 5.57 13.59 13.59 0 0 1-5.83 1.7 11.66 11.66 0 0 1-5.29-1 14.46 14.46 0 0 1-4.56-3.25 22.5 22.5 0 0 1-3.69-5.18 33.23 33.23 0 0 1-2.88-7.62 35.46 35.46 0 0 1-1-8.5 37.85 37.85 0 0 1 1-8.82 32.51 32.51 0 0 1 3.44-8.62 35.26 35.26 0 0 1 6.14-7.84 39.35 39.35 0 0 1 9.11-6.51q2.38-1.26 4.35-2.1a33 33 0 0 1 3.76-1.34 29.79 29.79 0 0 1 3.45-.77 36.37 36.37 0 0 1 3.49-.36zm-14.82-9.83a18.28 18.28 0 0 0-2.48 1.09 11.94 11.94 0 0 0-4.57 4.43 19.66 19.66 0 0 0-2.56 6.7 25.08 25.08 0 0 0-.2 7.86 22.53 22.53 0 0 0 2.47 7.83q2.78 5.22 6.3 3.36a7.06 7.06 0 0 0 3.41-4.07 12.2 12.2 0 0 0 .62-3.64 24.64 24.64 0 0 0-.42-5z" fill="#547efd"/><g fill="#ffb700"><circle cx="438.89" cy="346.72" r="11.71"/><circle cx="187.89" cy="914.78" r="5.85"/></g><path d="M1066,350.82a16.15,16.15,0,1,1-16.15-16.15A16.15,16.15,0,0,1,1066,350.82Z" fill="#c3f0ce"/><circle cx="441.14" cy="962.34" r="76.29" fill="#3f69d0"/><path d="M452.94 930.85a17.26 17.26 0 1 0-17.25-17.25 17.25 17.25 0 0 0 17.25 17.25zm-6.5 80.92c-6-5.5 22.3-52.8 18.58-68.2-2.7-11.22-47.86-3.85-48.32-.55 0 0 13-1.65 15.33 4.4s-15.33 42.35-18.58 56.1 12.08 18.15 22.3 18.15c12.08 0 31.6-8.25 31.13-12.1s-14.4 7.7-20.44 2.2z" fill="#f7fbfc"/><path d="M874.52 357.52v-1.65a22.29 22.29 0 0 0-22.29-22.28H827.8a22.28 22.28 0 0 0-22.28 22.28v1.65a22.28 22.28 0 0 0 22.28 22.28h24.43c.3 0 .58 0 .87-.05 3.14 4.88 9.1 10.64 19.95 11.3a19.61 19.61 0 0 1-9.92-14.1 22.27 22.27 0 0 0 11.39-19.42z" fill="#ffb700"/><g fill="#fefefe"><use xlink:href="#b"/><path d="M844 356.85a3.74 3.74 0 1 1-3.74-3.74 3.75 3.75 0 0 1 3.74 3.74zm13.62 0a3.74 3.74 0 1 1-3.74-3.74 3.75 3.75 0 0 1 3.74 3.74z"/></g></g></g></g></svg>