<svg xmlns="http://www.w3.org/2000/svg" xmlns:xlink="http://www.w3.org/1999/xlink" viewBox="0 0 1200 800" xmlns:v="https://vecta.io/nano"><style><![CDATA[.f,.h,.R,.j,.l,.P,.n,.T,.V,.X,.Z,.b,.d{mix-blend-mode:multiply}.Ab{opacity:.4}.Ac{color-interpolation-filters:sRGB}.Ad{flood-color:#fff}.Ae{fill:#fff}.Af{opacity:.5}.Ag{opacity:.3}.Ah{fill:#cdcdcd}.Ai{fill:#7f868c}]]></style><defs><filter  x="358.7" y="-8592" width="44.96" height="32766" filterUnits="userSpaceOnUse" class="Ac"><feFlood class="Ad"/><feBlend in="SourceGraphic"/></filter><radialGradient id="B" cx="381.18" cy="43.44" r="22.48" gradientUnits="userSpaceOnUse"><stop offset="0" stop-color="#fff"/><stop offset="1"/></radialGradient><filter  x="533.99" y="-8592" width="69.91" height="32766" filterUnits="userSpaceOnUse" class="Ac"><feFlood class="Ad"/><feBlend in="SourceGraphic"/></filter><radialGradient id="D" cx="568.94" cy="168.79" r="34.96" gradientTransform="translate(604.56 -423.59) rotate(76.92)" xlink:href="#B"/><filter  x="214.47" y="-8592" width="69.91" height="32766" filterUnits="userSpaceOnUse" class="Ac"><feFlood class="Ad"/><feBlend in="SourceGraphic"/></filter><radialGradient id="F" cx="249.43" cy="683" r="34.96" xlink:href="#B"/><filter  x="742.02" y="-8592" width="69.91" height="32766" filterUnits="userSpaceOnUse" class="Ac"><feFlood class="Ad"/><feBlend in="SourceGraphic"/></filter><radialGradient id="H" cx="776.97" cy="349.08" r="34.96" gradientTransform="translate(209.1 -285.79) rotate(23.99)" xlink:href="#B"/><filter  x="793.03" y="-8592" width="51.58" height="32766" filterUnits="userSpaceOnUse" class="Ac"><feFlood class="Ad"/><feBlend in="SourceGraphic"/></filter><radialGradient id="J" cx="-1161.58" cy="6968.63" r="25.79" gradientTransform="translate(4925.03 6249.79) rotate(135)" xlink:href="#B"/><filter  x="266.55" y="-8592" width="51.58" height="32766" filterUnits="userSpaceOnUse" class="Ac"><feFlood class="Ad"/><feBlend in="SourceGraphic"/></filter><radialGradient id="L" cx="-1159.98" cy="7495.11" r="25.79" gradientTransform="translate(347.93 8086.6) rotate(170.78)" xlink:href="#B"/><filter  x="125.07" y="-8592" width="44.96" height="32766" filterUnits="userSpaceOnUse" class="Ac"><feFlood class="Ad"/><feBlend in="SourceGraphic"/></filter><radialGradient id="N" cx="147.55" cy="309.08" r="22.48" gradientTransform="translate(131.47 -33.04) rotate(22.83)" gradientUnits="userSpaceOnUse"><stop offset=".07" stop-color="#fff"/><stop offset="1"/></radialGradient><filter  x="150.8" y="-8592" width="38.79" height="32766" filterUnits="userSpaceOnUse" class="Ac"><feFlood class="Ad"/><feBlend in="SourceGraphic"/></filter><radialGradient id="P" cx="-1194.11" cy="7617.26" r="19.39" gradientTransform="translate(7787.45 1662.44) rotate(90)" xlink:href="#B"/><filter  x="298.02" y="-8592" width="51.58" height="32766" filterUnits="userSpaceOnUse" class="Ac"><feFlood class="Ad"/><feBlend in="SourceGraphic"/></filter><radialGradient id="R" cx="-892.2" cy="7463.64" r="25.79" gradientTransform="translate(7787.45 1662.44) rotate(90)" xlink:href="#B"/><filter  x="159.87" y="-8592" width="51.58" height="32766" filterUnits="userSpaceOnUse" class="Ac"><feFlood class="Ad"/><feBlend in="SourceGraphic"/></filter><radialGradient id="T" cx="-921.54" cy="7601.79" r="25.79" gradientTransform="translate(4909.31 6767.81) rotate(135)" xlink:href="#B"/><filter  x="208.82" y="-8592" width="44.96" height="32766" filterUnits="userSpaceOnUse" class="Ac"><feFlood class="Ad"/><feBlend in="SourceGraphic"/></filter><radialGradient id="V" cx="231.29" cy="119.72" gradientTransform="translate(312.13 -127.86) rotate(80.72)" xlink:href="#N"/><filter  x="398.71" y="-8592" width="44.96" height="32766" filterUnits="userSpaceOnUse" class="Ac"><feFlood class="Ad"/><feBlend in="SourceGraphic"/></filter><radialGradient id="X" cx="421.19" cy="542.71" gradientTransform="translate(860.96 14.94) rotate(77.62)" xlink:href="#N"/><filter  x="50.93" y="-8592" width="44.96" height="32766" filterUnits="userSpaceOnUse" class="Ac"><feFlood class="Ad"/><feBlend in="SourceGraphic"/></filter><radialGradient id="Z" cx="73.4" cy="718.2" gradientTransform="translate(280.43 26.58) rotate(22.5)" xlink:href="#N"/><clipPath id="a"><path d="M0 0h1200v800H0z" fill="none"/></clipPath><filter id="b" x="358.7" y="20.96" width="44.96" height="44.96" filterUnits="userSpaceOnUse" class="Ac"><feFlood class="Ad"/><feBlend in="SourceGraphic"/></filter><mask id="c" x="358.7" y="20.96" width="44.96" height="44.96" maskUnits="userSpaceOnUse"><g mask="url(#B)" filter="url(#b)"><circle class="P" cx="381.18" cy="43.44" r="22.48" fill="url(#B)"/></g></mask><radialGradient id="d" cx="381.18" cy="43.44" r="22.48" gradientUnits="userSpaceOnUse"><stop offset="0" stop-color="#fff"/><stop offset="1" stop-color="#fff"/></radialGradient><filter id="e" x="125.07" y="286.6" width="44.96" height="44.96" filterUnits="userSpaceOnUse" class="Ac"><feFlood class="Ad"/><feBlend in="SourceGraphic"/></filter><mask id="f" x="125.07" y="286.6" width="44.96" height="44.96" maskUnits="userSpaceOnUse"><g mask="url(#T)" filter="url(#e)"><circle class="R" cx="147.55" cy="309.08" r="22.48" transform="matrix(.92166 -.387998 .387998 .92166 -108.36 81.46)" fill="url(#N)"/></g></mask><radialGradient id="g" cx="147.55" cy="309.08" r="22.48" gradientTransform="translate(131.47 -33.04) rotate(22.83)" gradientUnits="userSpaceOnUse"><stop offset=".07" stop-color="#fff"/><stop offset="1" stop-color="#fff"/></radialGradient><filter id="h" x="208.82" y="97.24" width="44.96" height="44.96" filterUnits="userSpaceOnUse" class="Ac"><feFlood class="Ad"/><feBlend in="SourceGraphic"/></filter><mask id="i" x="208.82" y="97.24" width="44.96" height="44.96" maskUnits="userSpaceOnUse"><g mask="url(#f)" filter="url(#h)"><circle class="T" cx="231.29" cy="119.72" r="22.48" transform="matrix(.161259 -.986912 .986912 .161259 75.84 328.67)" fill="url(#V)"/></g></mask><radialGradient id="j" cx="231.29" cy="119.72" gradientTransform="translate(312.13 -127.86) rotate(80.72)" xlink:href="#g"/><filter id="k" x="398.71" y="520.23" width="44.96" height="44.96" filterUnits="userSpaceOnUse" class="Ac"><feFlood class="Ad"/><feBlend in="SourceGraphic"/></filter><mask id="l" x="398.71" y="520.23" width="44.96" height="44.96" maskUnits="userSpaceOnUse"><g mask="url(#i)" filter="url(#k)"><circle class="V" cx="421.19" cy="542.71" r="22.48" transform="matrix(.214394 -.976747 .976747 .214394 -199.21 837.73)" fill="url(#X)"/></g></mask><radialGradient id="m" cx="421.19" cy="542.71" gradientTransform="translate(860.96 14.94) rotate(77.62)" xlink:href="#g"/><filter id="n" x="50.93" y="695.72" width="44.96" height="44.96" filterUnits="userSpaceOnUse" class="Ac"><feFlood class="Ad"/><feBlend in="SourceGraphic"/></filter><mask id="o" x="50.93" y="695.72" width="44.96" height="44.96" maskUnits="userSpaceOnUse"><g mask="url(#l)" filter="url(#n)"><circle class="X" cx="73.4" cy="718.2" r="22.48" transform="matrix(.92 -.38 .38 .92 -269.26 82.76)" fill="url(#Z)"/></g></mask><radialGradient id="p" cx="73.4" cy="718.2" gradientTransform="translate(280.43 26.58) rotate(22.5)" xlink:href="#g"/><filter id="q" x="533.99" y="133.83" width="69.91" height="69.91" filterUnits="userSpaceOnUse" class="Ac"><feFlood class="Ad"/><feBlend in="SourceGraphic"/></filter><mask id="r" x="533.99" y="133.83" width="69.91" height="69.91" maskUnits="userSpaceOnUse"><g mask="url(#E)" filter="url(#q)"><circle class="Z" cx="568.94" cy="168.79" r="34.96" transform="matrix(.226311 -.974055 .974055 .226311 275.75 684.76)" fill="url(#D)"/></g></mask><radialGradient id="s" cx="568.94" cy="168.79" r="34.96" gradientTransform="translate(604.56 -423.59) rotate(76.92)" xlink:href="#d"/><filter id="t" x="214.47" y="648.04" width="69.91" height="69.91" filterUnits="userSpaceOnUse" class="Ac"><feFlood class="Ad"/><feBlend in="SourceGraphic"/></filter><mask id="u" x="214.47" y="648.04" width="69.91" height="69.91" maskUnits="userSpaceOnUse"><g mask="url(#H)" filter="url(#t)"><circle class="b" cx="249.43" cy="683" r="34.96" fill="url(#F)"/></g></mask><radialGradient id="v" cx="249.43" cy="683" r="34.96" xlink:href="#d"/><filter id="w" x="742.02" y="314.13" width="69.91" height="69.91" filterUnits="userSpaceOnUse" class="Ac"><feFlood class="Ad"/><feBlend in="SourceGraphic"/></filter><mask id="x" x="742.02" y="314.13" width="69.91" height="69.91" maskUnits="userSpaceOnUse"><g mask="url(#K)" filter="url(#w)"><circle class="d" cx="776.97" cy="349.08" r="34.96" transform="matrix(.913616 -.406577 .406577 .913616 -74.81 346.13)" fill="url(#H)"/></g></mask><radialGradient id="y" cx="776.97" cy="349.08" r="34.96" gradientTransform="translate(209.1 -285.79) rotate(23.99)" xlink:href="#d"/><filter id="z" x="793.03" y="475.07" width="51.58" height="51.58" filterUnits="userSpaceOnUse" class="Ac"><feFlood class="Ad"/><feBlend in="SourceGraphic"/></filter><mask id="AA" x="793.03" y="475.07" width="51.58" height="51.58" maskUnits="userSpaceOnUse"><g mask="url(#N)" filter="url(#z)"><circle class="f" cx="818.82" cy="500.87" r="25.79" transform="matrix(.707107 -.707107 .707107 .707107 -114.34 725.7)" fill="url(#J)"/></g></mask><radialGradient id="AB" cx="-1161.58" cy="6968.63" r="25.79" gradientTransform="translate(4925.03 6249.79) rotate(135)" xlink:href="#d"/><filter id="AC" x="266.55" y="476.67" width="51.58" height="51.58" filterUnits="userSpaceOnUse" class="Ac"><feFlood class="Ad"/><feBlend in="SourceGraphic"/></filter><mask id="AD" x="266.55" y="476.67" width="51.58" height="51.58" maskUnits="userSpaceOnUse"><g mask="url(#Q)" filter="url(#AC)"><circle class="h" cx="292.35" cy="502.47" r="25.79" transform="matrix(.160226 -.98708 .98708 .160226 -250.46 710.55)" fill="url(#L)"/></g></mask><radialGradient id="AE" cx="-1159.98" cy="7495.11" r="25.79" gradientTransform="translate(347.93 8086.6) rotate(170.78)" xlink:href="#d"/><filter id="AF" x="150.8" y="448.93" width="38.79" height="38.79" filterUnits="userSpaceOnUse" class="Ac"><feFlood class="Ad"/><feBlend in="SourceGraphic"/></filter><mask id="AG" x="150.8" y="448.93" width="38.79" height="38.79" maskUnits="userSpaceOnUse"><g mask="url(#W)" filter="url(#AF)"><circle class="j" cx="170.19" cy="468.33" r="19.39" fill="url(#P)"/></g></mask><radialGradient id="AH" cx="-1194.11" cy="7617.26" r="19.39" gradientTransform="translate(7787.45 1662.44) rotate(90)" xlink:href="#d"/><filter id="AI" x="298.02" y="744.45" width="51.58" height="51.58" filterUnits="userSpaceOnUse" class="Ac"><feFlood class="Ad"/><feBlend in="SourceGraphic"/></filter><mask id="AJ" x="298.02" y="744.45" width="51.58" height="51.58" maskUnits="userSpaceOnUse"><g mask="url(#Z)" filter="url(#AI)"><circle class="l" cx="323.82" cy="770.24" r="25.79" fill="url(#R)"/></g></mask><radialGradient id="AK" cx="-892.2" cy="7463.64" r="25.79" gradientTransform="translate(7787.45 1662.44) rotate(90)" xlink:href="#d"/><filter id="AL" x="159.87" y="715.11" width="51.58" height="51.58" filterUnits="userSpaceOnUse" class="Ac"><feFlood class="Ad"/><feBlend in="SourceGraphic"/></filter><mask id="AM" x="159.87" y="715.11" width="51.58" height="51.58" maskUnits="userSpaceOnUse"><g mask="url(#c)" filter="url(#AL)"><circle class="n" cx="185.66" cy="740.9" r="25.79" transform="matrix(.707107 -.707107 .707107 .707107 -469.52 348.29)" fill="url(#T)"/></g></mask><radialGradient id="AN" cx="-921.54" cy="7601.79" r="25.79" gradientTransform="translate(4909.31 6767.81) rotate(135)" xlink:href="#d"/><path id="AO" d="M935.282 70.086l105.7 123.64-123.64 105.7-105.7-123.64z"/><path id="AP" d="M803.43 176.65l80.59-69.148 69.148 80.59-80.59 69.148z"/><path id="AQ" d="M-465.758 239.28l853.886 184.305-184.305 853.886-853.886-184.305z"/><path id="AR" d="M155.072 582.643l-257.925 607.928-607.928-257.925 257.925-607.928z"/><path id="AS" d="M596.38-470.23l429.157 472.63-472.63 429.157-429.157-472.63z"/><path id="AT" d="M-136.28 419l414.324 365.533-365.533 414.324-414.324-365.533z"/><path id="AU" d="M650.617 513.762l276.155 304.13-304.13 276.155-276.155-304.13z"/><path id="AV" d="M633.53 494.17a6.45 6.45 0 1 1-6.44-6.45 6.44 6.44 0 0 1 6.44 6.45z"/><path id="AW" d="M106.52 446.16a6.45 6.45 0 1 1-6.44-6.44 6.44 6.44 0 0 1 6.44 6.44z"/></defs><path d="M0 0h1200v800H0z" class="Ae"/><g clip-path="url(#a)"><g class="Ab Ah"><use xlink:href="#AO" class="Ab"/><path d="M935.6 59.498l105.7 123.64-123.64 105.7-105.7-123.64z" class="Ab"/><path d="M936.028 44.82l105.7 123.64-123.64 105.7-105.7-123.64z" class="Ab"/><path d="M936.34 34.814l105.7 123.64-123.64 105.7-105.7-123.64z" class="Ab"/></g><g class="Ab Ae"><g class="Ab"><path d="M803.242 183.567l80.59-69.148L952.98 195l-80.59 69.148z"/><use xlink:href="#AP"/><path d="M803.707 167.075l80.59-69.148 69.148 80.59-80.59 69.148z"/><path d="M803.89 160.535l80.59-69.148 69.148 80.59-80.59 69.148z"/></g></g><g class="Ah"><path d="M73.458-181.58L517.4 307.322 28.488 751.254-415.445 262.35z" class="Ab"/><path d="M118.247-224.232L562.18 264.67 73.277 708.603-370.656 219.7z" class="Ab"/><path d="M166.25-272.233L610.183 216.67 121.28 660.602-322.652 171.7z" class="Ab"/><path d="M219.052-323.81L662.984 165.09 174.08 609.024-269.85 120.12z" class="Ab"/></g><g class="Ai"><path d="M-508.53 282.377l856.08 183.445-183.445 856.08-856.08-183.445z" class="Af"/><use xlink:href="#AQ" class="Af"/><path d="M-440.153 213.676L413.733 397.98l-184.305 853.886-853.886-184.305z" class="Af"/><path d="M-414.553 191.282l853.886 184.305-184.305 853.886-853.886-184.305z" class="Af"/></g><g opacity=".62" class="Ai"><path d="M750.55 131.15l203.076 209.193-209.193 203.076-203.076-209.193z" class="Af"/><path d="M769.808 127.293l203.076 209.193L763.69 539.562 560.615 330.37z" class="Af"/><path d="M781.652 124.925l203.076 209.193-209.193 203.076L572.46 328z" class="Af"/><path d="M792.9 123.436L995.976 332.63 786.783 535.705 583.707 326.512z" class="Af"/></g><g class="Ah"><path d="M490.978 337.48L934.91 826.382l-488.903 443.932L2.076 781.412z" class="Ab"/><path d="M535.775 294.812l443.932 488.903-488.903 443.932L46.872 738.744z" class="Ab"/><path d="M583.77 246.827l443.932 488.903L538.8 1179.662 94.868 690.76z" class="Ab"/><path d="M636.57 195.246L1080.5 684.15 591.598 1128.08 147.666 639.18z" class="Ab"/></g><g class="Af Ai"><path d="M711.155-114.067L453.23 493.86-154.698 235.937l257.925-607.928z" class="Ab"/><path d="M768.66-91.26L510.736 516.668-97.192 258.743l257.925-607.928z" class="Ab"/><path d="M832.35-67.796L574.424 540.132-33.504 282.207 224.42-325.72z" class="Ab"/><path d="M901.307-41.467L643.382 566.46 35.454 308.536 293.38-299.392z" class="Ab"/></g><g opacity=".46" class="Ai"><use xlink:href="#AR" class="Ab"/><path d="M212.582 605.44l-257.925 607.928-607.928-257.925 257.925-607.928z" class="Ab"/><path d="M276.27 628.905L18.345 1236.833-589.583 978.908-331.658 370.98z" class="Ab"/><path d="M345.228 655.234L87.303 1263.162l-607.928-257.925L-262.7 397.31z" class="Ab"/></g><g fill="#f2f2f2"><path d="M596.38-428.634l429.157 472.63-472.63 429.157L123.75.523z" class="Ab"/><use xlink:href="#AS" class="Ab"/><path d="M596.382-527.83L1025.538-55.2l-472.63 429.157-429.157-472.63z" class="Ab"/><path d="M596.385-567.098l429.157 472.63-472.63 429.157-429.157-472.63z" class="Ab"/></g><g class="Ab Ah"><use xlink:href="#AT" class="Ab"/><path d="M-140.246 383.224l414.324 365.533-365.533 414.324-414.324-365.533z" class="Ab"/><path d="M-145.756 333.686L268.568 699.22-96.965 1113.543-511.288 748z" class="Ab"/><path d="M-149.503 299.897L264.82 665.43l-365.533 414.324-414.324-365.533z" class="Ab"/></g><g opacity=".92" class="Ae"><path d="M628.062 493.846l276.155 304.13-304.13 276.155L323.932 770z" class="Ab"/><use xlink:href="#AU" class="Ab"/><path d="M673.183 533.668l276.155 304.13-304.13 276.155-276.155-304.13z" class="Ab"/><path d="M695.738 553.598l276.155 304.13-304.13 276.155-276.155-304.13z" class="Ab"/><path d="M718.303 573.505l276.155 304.13L690.33 1153.8 414.174 849.66z" class="Ab"/><path d="M740.86 593.42l276.155 304.13-304.13 276.155-276.155-304.13z" class="Ab"/></g><g opacity=".92" class="Ae"><path d="M498.926-521.46L775.08-217.33 470.95 58.826l-276.155-304.13z" class="Ab"/><path d="M521.48-501.543l276.155 304.13-304.13 276.155-276.155-304.13z" class="Ab"/><path d="M544.046-481.622L820.2-177.493 516.07 98.663l-276.155-304.13z" class="Ab"/><path d="M566.602-461.706l276.155 304.13-304.13 276.155-276.155-304.13z" class="Ab"/><path d="M589.167-441.8l276.155 304.13-304.13 276.155-276.155-304.13z" class="Ab"/><path d="M611.715-421.887l276.155 304.13-304.13 276.155-276.155-304.13z" class="Ab"/></g><g fill="#f2f2f2"><path d="M769.125 752.207l429.157 472.63-472.63 429.157-429.157-472.63z" class="Ab"/><path d="M769.125 710.618l429.157 472.63-472.63 429.157-429.157-472.63z" class="Ab"/><path d="M769.13 653.027l429.157 472.63-472.63 429.157-429.157-472.63z" class="Ab"/><path d="M769.13 613.752l429.157 472.63-472.63 429.157-429.157-472.63z" class="Ab"/></g><g class="Ae"><path d="M452.34 363.08h0L.22 281.2A.26.26 0 0 1 0 281a.27.27 0 0 1 .1-.28l231.2-161.34a.26.26 0 0 1 .35 0l220.9 243.26a.27.27 0 0 1 0 .31.25.25 0 0 1-.2.13zM1 280.8l450.67 81.6L231.43 120z"/><path d="M323.86 770.67h-.05L73.25 717.34a.25.25 0 0 1-.2-.19.25.25 0 0 1 .06-.26L191.3 597 0 281.1l.45-.28 191.2 315.77 260.47-234a.27.27 0 0 1 .34 0L628 493.87l148.87-143.7a.24.24 0 0 1 .16-.07l218.84-17.38a.26.26 0 0 1 .26.15.27.27 0 0 1-.06.31L871.44 454.1 912.57 609a.25.25 0 0 1-.05.25.3.3 0 0 1-.24.09L725.26 587l74.84 71.7a.32.32 0 0 1 .08.2.26.26 0 0 1-.1.2L668.33 770.6a.26.26 0 0 1-.35 0L421.3 543.37 324.1 770.5a.27.27 0 0 1-.25.17zm-250-53.75L323.7 770.1l97.05-226.8-229 53.94zm347.9-173.86L668.17 770 799.5 658.88 627.9 494.54zm303.06 43.37L912 608.77l-41.1-154.6-93.75-103.24zM452.36 363.16L192.58 596.5l434.78-102.4zm176 131.06l96 91.92 52.2-235zm149.2-143.63l93.6 103.06 124-120.34z"/><path d="M452.34 363.35c-.1 0-.18-.18-.23-.26a.4.4 0 0 1 0-.34L567.46 170.8l-336-50.9.08-.54 336.3 50.94L724 30.92a.25.25 0 0 1 .36 0l154 151.62a.26.26 0 0 1 .07.24.23.23 0 0 1-.15.19l-198.1 83.78 97 83.4a.25.25 0 0 1 .08.29c0 .1-.13.3-.24.32l-324.67 12.58zM679.62 267L453.8 362.5l322.52-12.37zM568 171L453 362.25l226.17-95.65zm.34-.4l111.42 95.8 198-83.72-153.6-151.2z"/><path d="M878.33 182.94l-.33-.42L988.22 96.4 903.55.4l.4-.35 84.85 96.2a.26.26 0 0 1 .07.2.27.27 0 0 1-.1.19zm-646.73-63.1l-.24-.48L381 43.24l18-43.1.5.2-18 43.2a.29.29 0 0 1-.13.14zM73.3 717.34a.28.28 0 0 1-.23-.13L.14 588.64a.26.26 0 0 1 0-.28l99.6-142.48a.27.27 0 0 1 .31-.1.28.28 0 0 1 .17.28l-26.64 271a.29.29 0 0 1-.21.24zM.7 588.53l72.43 127.7L99.58 447z"/><path d="M124.7 800l-.36-.4L248.7 683.35 73.6 717.3l16.44 82.62-.52.1L73 717.13a.28.28 0 0 1 0-.2.3.3 0 0 1 .17-.12l176.33-34.16a.27.27 0 0 1 .28.14.26.26 0 0 1-.05.32z"/><path d="M315.7 800l-.5-.15 8.4-29.43-74.23-87.37-57.94-85.9a.49.49 0 0 1 0-.11l-42.82-289.3a3.64 3.64 0 0 1 .23-.39h.15v.65s-.2-.05-.18-.07l82.48-188.17L.2.47A.28.28 0 0 1 0 .15.24.24 0 0 1 .31 0l380.9 43.17 343-12.32v.53L382 43.67l186 126.68a.24.24 0 0 1 .11.25.26.26 0 0 1-.18.22L149.08 308.2l42.8 288.7 57.9 85.86 74.3 87.47a.29.29 0 0 1 .05.24zm65.54-756.2l-231.6 263.66 417.67-137zM1.68.66l229.9 118.7a.28.28 0 0 1 .12.35l-82 186.82 230.94-262.9z"/><path d="M249.72 683.12l-.34-.4L420.65 543 99.87 446.3l.15-.5 321.26 96.88a.27.27 0 0 1 .19.21.29.29 0 0 1-.09.26z"/><path d="M324 770.65l-.2-.5 151.2-56.7L421 543l.5-.16 54.15 170.7a.25.25 0 0 1-.16.33z"/><path d="M668.16 770.67h-.08l-192.8-56.78.16-.5L667.83 770 627.7 494.26l.53-.08 40.18 276.18a.25.25 0 0 1-.09.24.28.28 0 0 1-.17.07z"/><path d="M595.76 800l-.2-.5 72.5-29.32a.26.26 0 0 1 .21 0l64.5 29.32-.23.48-64.4-29.27zm203.887-141.072l.527-.054 14.553 141.07-.527.054z"/></g><g mask="url(#c)"><circle cx="381.18" cy="43.44" r="22.48" fill="url(#d)"/></g><g mask="url(#f)"><circle cx="147.55" cy="309.08" r="22.48" transform="matrix(.92166 -.387998 .387998 .92166 -108.36 81.46)" fill="url(#g)"/></g><g mask="url(#i)"><circle cx="231.29" cy="119.72" r="22.48" transform="matrix(.161259 -.986912 .986912 .161259 75.84 328.67)" fill="url(#j)"/></g><g mask="url(#l)"><circle cx="421.19" cy="542.71" r="22.48" transform="matrix(.214394 -.976747 .976747 .214394 -199.21 837.73)" fill="url(#m)"/></g><g mask="url(#o)"><circle cx="73.4" cy="718.2" r="22.48" transform="matrix(.92 -.38 .38 .92 -269.26 82.76)" fill="url(#p)"/></g><g mask="url(#r)"><circle cx="568.94" cy="168.79" r="34.96" transform="matrix(.226311 -.974055 .974055 .226311 275.75 684.76)" fill="url(#s)"/></g><g mask="url(#u)"><circle cx="249.43" cy="683" r="34.96" fill="url(#v)"/></g><g mask="url(#x)"><circle cx="776.97" cy="349.08" r="34.96" transform="matrix(.913616 -.406577 .406577 .913616 -74.81 346.13)" fill="url(#y)"/></g><g mask="url(#AA)"><circle cx="818.82" cy="500.87" r="25.79" transform="matrix(.707107 -.707107 .707107 .707107 -114.34 725.7)" fill="url(#AB)" class="Ag"/></g><g mask="url(#AD)"><circle cx="292.35" cy="502.47" r="25.79" transform="matrix(.160226 -.98708 .98708 .160226 -250.46 710.55)" fill="url(#AE)" class="Ag"/></g><g mask="url(#AG)"><circle cx="170.19" cy="468.33" r="19.39" fill="url(#AH)" class="Ag"/></g><g mask="url(#AJ)"><circle cx="323.82" cy="770.24" r="25.79" fill="url(#AK)" class="Ag"/></g><g mask="url(#AM)"><circle cx="185.66" cy="740.9" r="25.79" transform="matrix(.707107 -.707107 .707107 .707107 -469.52 348.29)" fill="url(#AN)" class="Ag"/></g><g class="Ae"><use xlink:href="#AV"/><use xlink:href="#AW"/><path d="M198.8 596.58a6.45 6.45 0 1 1-6.44-6.44 6.44 6.44 0 0 1 6.44 6.44zM806.36 659a6.45 6.45 0 1 1-6.45-6.44 6.45 6.45 0 0 1 6.45 6.44zm-455-417.13a6.45 6.45 0 1 1-6.45-6.45 6.44 6.44 0 0 1 6.45 6.45zm337.1 24a6.45 6.45 0 1 1-6.44-6.45 6.44 6.44 0 0 1 6.44 6.45z"/><circle cx="381.18" cy="43.44" r="13.87"/><circle cx="231.29" cy="119.72" r="13.87"/><circle cx="147.55" cy="309.08" r="13.87"/><circle cx="249.43" cy="683" r="13.87"/><circle cx="421.72" cy="542.71" r="13.87"/><circle cx="668.16" cy="770.48" r="13.87"/><circle cx="475.6" cy="717.14" r="13.87" transform="matrix(.208595 -.978002 .978002 .208595 -324.98 1032.65)"/><circle cx="73.4" cy="717.14" r="13.87" transform="matrix(.382683 -.92388 .92388 .382683 -617.23 510.52)"/><circle cx="878.32" cy="182.66" r="13.87"/><circle cx="449.46" cy="362.95" r="13.87" transform="matrix(.16 -.99 .99 .16 20.27 749.66)"/><circle cx="776.97" cy="349.08" r="13.87"/><circle cx="912.46" cy="608.32" r="13.87"/><circle cx="568.94" cy="168.79" r="13.87"/></g></g></svg>